<?xml version="1.0" encoding="UTF-8"?>
<!DOCTYPE svg PUBLIC "-//W3C//DTD SVG 1.1//EN" "http://www.w3.org/Graphics/SVG/1.1/DTD/svg11.dtd">
<svg xmlns="http://www.w3.org/2000/svg" xmlns:xlink="http://www.w3.org/1999/xlink" version="1.1" viewBox="-0.5 -0.5 1061 384"><defs><clipPath id="mx-clip-294-73-252-74-0"><rect x="294" y="73" width="252" height="74"/></clipPath><clipPath id="mx-clip-294-147-252-222-0"><rect x="294" y="147" width="252" height="222"/></clipPath><clipPath id="mx-clip-4-176-212-66-0"><rect x="4" y="176" width="212" height="66"/></clipPath><clipPath id="mx-clip-894-181-162-56-0"><rect x="894" y="181" width="162" height="56"/></clipPath><clipPath id="mx-clip-634-331-172-54-0"><rect x="634" y="331" width="172" height="54"/></clipPath><clipPath id="mx-clip-634-131-172-54-0"><rect x="634" y="131" width="172" height="54"/></clipPath><clipPath id="mx-clip-634-31-172-54-0"><rect x="634" y="31" width="172" height="54"/></clipPath><clipPath id="mx-clip-634-231-172-54-0"><rect x="634" y="231" width="172" height="54"/></clipPath></defs><g><path d="M 290 68 L 290 42 L 550 42 L 550 68" fill="#ffffff" stroke="#000000" stroke-miterlimit="10" pointer-events="all"/><path d="M 290 68 L 290 364 L 550 364 L 550 68" fill="none" stroke="#000000" stroke-miterlimit="10" pointer-events="none"/><path d="M 290 68 L 550 68" fill="none" stroke="#000000" stroke-miterlimit="10" pointer-events="none"/><g fill="#000000" font-family="Helvetica" font-weight="bold" pointer-events="none" text-anchor="middle" font-size="12px"><text x="419.5" y="59.5">SupplyChain</text></g><rect x="290" y="68" width="260" height="74" fill="#f5f5f5" stroke="#666666" pointer-events="none"/><g fill="#333333" font-family="Helvetica" pointer-events="none" clip-path="url(#mx-clip-294-73-252-74-0)" font-size="12px"><text x="295.5" y="85.5">+ upc: uint256</text><text x="295.5" y="99.5">+ sku: uint256</text><text x="295.5" y="113.5">+ items: mapping(uint256 =&gt; Item)</text><text x="295.5" y="127.5">+ itemsHistory: mapping(uint256 =&gt; string[])</text></g><rect x="290" y="142" width="260" height="222" fill="#f5f5f5" stroke="#666666" pointer-events="none"/><g fill="#333333" font-family="Helvetica" pointer-events="none" clip-path="url(#mx-clip-294-147-252-222-0)" font-size="12px"><text x="295.5" y="159.5">+ kill(): void</text><text x="295.5" y="173.5">+ harvestItem(</text><text x="295.5" y="187.5">    upc, originFarmerID, originFarmName,</text><text x="295.5" y="201.5">    originFarmInformation, originFarmLatitude,</text><text x="295.5" y="215.5">    originFarmLongitude, productNotes</text><text x="295.5" y="229.5">   ): void</text><text x="295.5" y="243.5">+ processItem(upc): void</text><text x="295.5" y="257.5">+ packItem(upc): void</text><text x="295.5" y="271.5">+ sellItem(upc, price): void</text><text x="295.5" y="285.5">+ buyItem(upc): void</text><text x="295.5" y="299.5">+ shipItem(upc): void</text><text x="295.5" y="313.5">+ receiveItem(upc): void</text><text x="295.5" y="327.5">+ purchaseItem(upc): void</text><text x="295.5" y="341.5">+ fetchItemBufferOne(upc): void</text><text x="295.5" y="355.5">+ fetchItemBufferTwo(upc): void</text></g><path d="M 0 171 L 0 145 L 220 145 L 220 171" fill="#ffffff" stroke="#000000" stroke-miterlimit="10" pointer-events="none"/><path d="M 0 171 L 0 237 L 220 237 L 220 171" fill="none" stroke="#000000" stroke-miterlimit="10" pointer-events="none"/><path d="M 0 171 L 220 171" fill="none" stroke="#000000" stroke-miterlimit="10" pointer-events="none"/><g fill="#000000" font-family="Helvetica" font-weight="bold" pointer-events="none" text-anchor="middle" font-size="12px"><text x="109.5" y="162.5">Ownable</text></g><rect x="0" y="171" width="220" height="66" fill="#f5f5f5" stroke="#666666" pointer-events="none"/><g fill="#333333" font-family="Helvetica" pointer-events="none" clip-path="url(#mx-clip-4-176-212-66-0)" font-size="12px"><text x="5.5" y="188.5">+ owner(): address</text><text x="5.5" y="202.5">+ isOwner(): bool</text><text x="5.5" y="216.5">+ renounceOwnership(): void</text><text x="5.5" y="230.5">+ transferOwnership(newOwner): void</text></g><path d="M 890 176 L 890 150 L 1060 150 L 1060 176" fill="#ffffff" stroke="#000000" stroke-miterlimit="10" pointer-events="none"/><path d="M 890 176 L 890 232 L 1060 232 L 1060 176" fill="none" stroke="#000000" stroke-miterlimit="10" pointer-events="none"/><path d="M 890 176 L 1060 176" fill="none" stroke="#000000" stroke-miterlimit="10" pointer-events="none"/><g fill="#000000" font-family="Helvetica" font-weight="bold" pointer-events="none" text-anchor="middle" font-size="12px"><text x="974.5" y="167.5">Roles</text></g><rect x="890" y="176" width="170" height="56" fill="#f5f5f5" stroke="#666666" pointer-events="none"/><g fill="#333333" font-family="Helvetica" pointer-events="none" clip-path="url(#mx-clip-894-181-162-56-0)" font-size="12px"><text x="895.5" y="193.5">+ add(role, account): void</text><text x="895.5" y="207.5">+ remove(role, account): void</text><text x="895.5" y="221.5">+ has(role, account): bool</text></g><path d="M 630 326 L 630 300 L 810 300 L 810 326" fill="#ffffff" stroke="#000000" stroke-miterlimit="10" pointer-events="none"/><path d="M 630 326 L 630 380 L 810 380 L 810 326" fill="none" stroke="#000000" stroke-miterlimit="10" pointer-events="none"/><path d="M 630 326 L 810 326" fill="none" stroke="#000000" stroke-miterlimit="10" pointer-events="none"/><g fill="#000000" font-family="Helvetica" font-weight="bold" pointer-events="none" text-anchor="middle" font-size="12px"><text x="719.5" y="317.5">ConsumerRole</text></g><rect x="630" y="326" width="180" height="54" fill="#f5f5f5" stroke="#666666" pointer-events="none"/><g fill="#333333" font-family="Helvetica" pointer-events="none" clip-path="url(#mx-clip-634-331-172-54-0)" font-size="12px"><text x="635.5" y="343.5">+ isConsumer(account): bool</text><text x="635.5" y="357.5">+ addConsumer(account): void</text><text x="635.5" y="371.5">+ renounceConsumer(): void</text></g><path d="M 630 126 L 630 100 L 810 100 L 810 126" fill="#ffffff" stroke="#000000" stroke-miterlimit="10" pointer-events="none"/><path d="M 630 126 L 630 180 L 810 180 L 810 126" fill="none" stroke="#000000" stroke-miterlimit="10" pointer-events="none"/><path d="M 630 126 L 810 126" fill="none" stroke="#000000" stroke-miterlimit="10" pointer-events="none"/><g fill="#000000" font-family="Helvetica" font-weight="bold" pointer-events="none" text-anchor="middle" font-size="12px"><text x="719.5" y="117.5">DistributorRole</text></g><rect x="630" y="126" width="180" height="54" fill="#f5f5f5" stroke="#666666" pointer-events="none"/><g fill="#333333" font-family="Helvetica" pointer-events="none" clip-path="url(#mx-clip-634-131-172-54-0)" font-size="12px"><text x="635.5" y="143.5">+ isDistributor(account): bool</text><text x="635.5" y="157.5">+ addDistributor(account): void</text><text x="635.5" y="171.5">+ renounceDistributor(): void</text></g><path d="M 630 26 L 630 0 L 810 0 L 810 26" fill="#ffffff" stroke="#000000" stroke-miterlimit="10" pointer-events="none"/><path d="M 630 26 L 630 80 L 810 80 L 810 26" fill="none" stroke="#000000" stroke-miterlimit="10" pointer-events="none"/><path d="M 630 26 L 810 26" fill="none" stroke="#000000" stroke-miterlimit="10" pointer-events="none"/><g fill="#000000" font-family="Helvetica" font-weight="bold" pointer-events="none" text-anchor="middle" font-size="12px"><text x="719.5" y="17.5">FarmerRole</text></g><rect x="630" y="26" width="180" height="54" fill="#f5f5f5" stroke="#666666" pointer-events="none"/><g fill="#333333" font-family="Helvetica" pointer-events="none" clip-path="url(#mx-clip-634-31-172-54-0)" font-size="12px"><text x="635.5" y="43.5">+ isFarmer(account): bool</text><text x="635.5" y="57.5">+ addFarmer(account): void</text><text x="635.5" y="71.5">+ renounceFarmer(): void</text></g><path d="M 630 226 L 630 200 L 810 200 L 810 226" fill="#ffffff" stroke="#000000" stroke-miterlimit="10" pointer-events="none"/><path d="M 630 226 L 630 280 L 810 280 L 810 226" fill="none" stroke="#000000" stroke-miterlimit="10" pointer-events="none"/><path d="M 630 226 L 810 226" fill="none" stroke="#000000" stroke-miterlimit="10" pointer-events="none"/><g fill="#000000" font-family="Helvetica" font-weight="bold" pointer-events="none" text-anchor="middle" font-size="12px"><text x="719.5" y="217.5">RetailerRole</text></g><rect x="630" y="226" width="180" height="54" fill="#f5f5f5" stroke="#666666" pointer-events="none"/><g fill="#333333" font-family="Helvetica" pointer-events="none" clip-path="url(#mx-clip-634-231-172-54-0)" font-size="12px"><text x="635.5" y="243.5">+ isRetailer(account): bool</text><text x="635.5" y="257.5">+ addRetailer(account): void</text><text x="635.5" y="271.5">+ renounceRetailer(): void</text></g><path d="M 810 353 L 850 353 L 850 204 L 883.63 204" fill="none" stroke="#000000" stroke-miterlimit="10" pointer-events="none"/><path d="M 888.88 204 L 881.88 207.5 L 883.63 204 L 881.88 200.5 Z" fill="#000000" stroke="#000000" stroke-miterlimit="10" pointer-events="none"/><path d="M 810 253 L 850 253 L 850 204 L 883.63 204" fill="none" stroke="#000000" stroke-miterlimit="10" pointer-events="none"/><path d="M 888.88 204 L 881.88 207.5 L 883.63 204 L 881.88 200.5 Z" fill="#000000" stroke="#000000" stroke-miterlimit="10" pointer-events="none"/><path d="M 810 153 L 850 153 L 850 204 L 883.63 204" fill="none" stroke="#000000" stroke-miterlimit="10" pointer-events="none"/><path d="M 888.88 204 L 881.88 207.5 L 883.63 204 L 881.88 200.5 Z" fill="#000000" stroke="#000000" stroke-miterlimit="10" pointer-events="none"/><path d="M 810 53 L 850 53 L 850 204 L 883.63 204" fill="none" stroke="#000000" stroke-miterlimit="10" pointer-events="none"/><path d="M 888.88 204 L 881.88 207.5 L 883.63 204 L 881.88 200.5 Z" fill="#000000" stroke="#000000" stroke-miterlimit="10" pointer-events="none"/><path d="M 630 53 L 590 53 L 590 203 L 556.37 203" fill="none" stroke="#000000" stroke-miterlimit="10" pointer-events="none"/><path d="M 551.12 203 L 558.12 199.5 L 556.37 203 L 558.12 206.5 Z" fill="#000000" stroke="#000000" stroke-miterlimit="10" pointer-events="none"/><path d="M 630 153 L 590 153 L 590 203 L 556.37 203" fill="none" stroke="#000000" stroke-miterlimit="10" pointer-events="none"/><path d="M 551.12 203 L 558.12 199.5 L 556.37 203 L 558.12 206.5 Z" fill="#000000" stroke="#000000" stroke-miterlimit="10" pointer-events="none"/><path d="M 630 253 L 590 253 L 590 203 L 556.37 203" fill="none" stroke="#000000" stroke-miterlimit="10" pointer-events="none"/><path d="M 551.12 203 L 558.12 199.5 L 556.37 203 L 558.12 206.5 Z" fill="#000000" stroke="#000000" stroke-miterlimit="10" pointer-events="none"/><path d="M 630 353 L 590 353 L 590 203 L 556.37 203" fill="none" stroke="#000000" stroke-miterlimit="10" pointer-events="none"/><path d="M 551.12 203 L 558.12 199.5 L 556.37 203 L 558.12 206.5 Z" fill="#000000" stroke="#000000" stroke-miterlimit="10" pointer-events="none"/><path d="M 220 204 L 255 204 L 283.63 203.95" fill="none" stroke="#000000" stroke-miterlimit="10" pointer-events="none"/><path d="M 288.88 203.94 L 281.89 207.45 L 283.63 203.95 L 281.88 200.45 Z" fill="#000000" stroke="#000000" stroke-miterlimit="10" pointer-events="none"/></g></svg>